<svg xmlns="http://www.w3.org/2000/svg" width="600" height="400" viewBox="0 0 600 400">
  <!-- Background -->
  <rect x="10" y="10" width="580" height="380" rx="20" ry="20" fill="#FFFFFF" stroke="#E2E8F0" stroke-width="2" />
  
  <!-- Dashboard Header -->
  <rect x="30" y="30" width="540" height="60" rx="8" ry="8" fill="#F8FAFF" />
  <circle cx="60" cy="60" r="15" fill="#4353FF" />
  <rect x="90" y="50" width="120" height="20" rx="4" ry="4" fill="#E2E8F0" />
  <rect x="400" y="50" width="50" height="20" rx="4" ry="4" fill="#E2E8F0" />
  <rect x="460" y="50" width="80" height="20" rx="4" ry="4" fill="#4353FF" />
  
  <!-- Main Chart -->
  <rect x="30" y="110" width="350" height="220" rx="8" ry="8" fill="#F8FAFF" />
  <text x="50" y="140" font-family="Arial" font-size="14" fill="#2D3748">Organic Traffic Growth</text>
  
  <!-- Chart Lines -->
  <polyline points="50,280 100,260 150,240 200,180 250,190 300,150 350,130" 
            fill="none" stroke="#4353FF" stroke-width="3" />
  <polyline points="50,280 100,270 150,265 200,250 250,230 300,220 350,200" 
            fill="none" stroke="#6C63FF" stroke-width="3" stroke-dasharray="5,5" />
  
  <!-- Chart Points -->
  <circle cx="50" cy="280" r="4" fill="#4353FF" />
  <circle cx="100" cy="260" r="4" fill="#4353FF" />
  <circle cx="150" cy="240" r="4" fill="#4353FF" />
  <circle cx="200" cy="180" r="4" fill="#4353FF" />
  <circle cx="250" cy="190" r="4" fill="#4353FF" />
  <circle cx="300" cy="150" r="4" fill="#4353FF" />
  <circle cx="350" cy="130" r="4" fill="#4353FF" />
  
  <!-- Chart X Axis -->
  <line x1="50" y1="300" x2="350" y2="300" stroke="#718096" stroke-width="1" />
  <text x="50" y="320" font-family="Arial" font-size="10" fill="#718096">Jan</text>
  <text x="100" y="320" font-family="Arial" font-size="10" fill="#718096">Feb</text>
  <text x="150" y="320" font-family="Arial" font-size="10" fill="#718096">Mar</text>
  <text x="200" y="320" font-family="Arial" font-size="10" fill="#718096">Apr</text>
  <text x="250" y="320" font-family="Arial" font-size="10" fill="#718096">May</text>
  <text x="300" y="320" font-family="Arial" font-size="10" fill="#718096">Jun</text>
  <text x="350" y="320" font-family="Arial" font-size="10" fill="#718096">Jul</text>
  
  <!-- Sidebar Stats -->
  <rect x="400" y="110" width="170" height="65" rx="8" ry="8" fill="#F8FAFF" />
  <text x="420" y="135" font-family="Arial" font-size="12" fill="#718096">Keywords Ranking</text>
  <text x="420" y="160" font-family="Arial" font-size="18" font-weight="bold" fill="#2D3748">124 / 200</text>
  
  <rect x="400" y="190" width="170" height="65" rx="8" ry="8" fill="#F8FAFF" />
  <text x="420" y="215" font-family="Arial" font-size="12" fill="#718096">Backlinks</text>
  <text x="420" y="240" font-family="Arial" font-size="18" font-weight="bold" fill="#2D3748">1,240</text>
  
  <rect x="400" y="270" width="170" height="65" rx="8" ry="8" fill="#F8FAFF" />
  <text x="420" y="295" font-family="Arial" font-size="12" fill="#718096">Domain Score</text>
  <text x="420" y="320" font-family="Arial" font-size="18" font-weight="bold" fill="#2D3748">78 / 100</text>
  
  <!-- Decorative Elements -->
  <circle cx="540" cy="50" r="3" fill="#FF6584" />
  <rect x="400" y="160" width="30" height="4" rx="2" ry="2" fill="#4353FF" />
  <rect x="435" y="160" width="30" height="4" rx="2" ry="2" fill="#6C63FF" />
  <rect x="470" y="160" width="30" height="4" rx="2" ry="2" fill="#E2E8F0" />
</svg> 